<?xml version="1.0" encoding="UTF-8" standalone="no"?>
<!-- Created with Inkscape (http://www.inkscape.org/) -->
<svg
   xmlns:dc="http://purl.org/dc/elements/1.1/"
   xmlns:cc="http://creativecommons.org/ns#"
   xmlns:rdf="http://www.w3.org/1999/02/22-rdf-syntax-ns#"
   xmlns:svg="http://www.w3.org/2000/svg"
   xmlns="http://www.w3.org/2000/svg"
   xmlns:sodipodi="http://sodipodi.sourceforge.net/DTD/sodipodi-0.dtd"
   xmlns:inkscape="http://www.inkscape.org/namespaces/inkscape"
   id="svg2"
   sodipodi:version="0.32"
   inkscape:version="0.46"
   width="663.72858"
   height="536.367"
   xml:space="preserve"
   sodipodi:docname="example_event_display_3.svg"
   inkscape:output_extension="org.inkscape.output.svg.inkscape"
   version="1.0"><metadata
     id="metadata7"><rdf:RDF><cc:Work
         rdf:about=""><dc:format>image/svg+xml</dc:format><dc:type
           rdf:resource="http://purl.org/dc/dcmitype/StillImage" /></cc:Work></rdf:RDF></metadata><defs
     id="defs5"><inkscape:perspective
       sodipodi:type="inkscape:persp3d"
       inkscape:vp_x="0 : 526.18109 : 1"
       inkscape:vp_y="0 : 1000 : 0"
       inkscape:vp_z="744.09448 : 526.18109 : 1"
       inkscape:persp3d-origin="372.04724 : 350.78739 : 1"
       id="perspective9" /><clipPath
       clipPathUnits="userSpaceOnUse"
       id="clipPath43"><path
         d="M 0,0 L 566.929,0 L 566.929,458.334 L 0,458.334 L 0,0 z"
         id="path45" /></clipPath><clipPath
       clipPathUnits="userSpaceOnUse"
       id="clipPath55"><path
         d="M 0,0 L 566.929,0 L 566.929,458.334 L 0,458.334 L 0,0 z"
         id="path57" /></clipPath><clipPath
       clipPathUnits="userSpaceOnUse"
       id="clipPath123"><path
         d="M 0,0 L 566.929,0 L 566.929,458.334 L 0,458.334 L 0,0 z"
         id="path125" /></clipPath><clipPath
       clipPathUnits="userSpaceOnUse"
       id="clipPath135"><path
         d="M 0,0 L 566.929,0 L 566.929,458.334 L 0,458.334 L 0,0 z"
         id="path137" /></clipPath><clipPath
       clipPathUnits="userSpaceOnUse"
       id="clipPath147"><path
         d="M 0,0 L 566.929,0 L 566.929,458.334 L 0,458.334 L 0,0 z"
         id="path149" /></clipPath><clipPath
       clipPathUnits="userSpaceOnUse"
       id="clipPath159"><path
         d="M 0,0 L 566.929,0 L 566.929,458.334 L 0,458.334 L 0,0 z"
         id="path161" /></clipPath><clipPath
       clipPathUnits="userSpaceOnUse"
       id="clipPath171"><path
         d="M 0,0 L 566.929,0 L 566.929,458.334 L 0,458.334 L 0,0 z"
         id="path173" /></clipPath><clipPath
       clipPathUnits="userSpaceOnUse"
       id="clipPath185"><path
         d="M 0,0 L 566.929,0 L 566.929,458.334 L 0,458.334 L 0,0 z"
         id="path187" /></clipPath><clipPath
       clipPathUnits="userSpaceOnUse"
       id="clipPath249"><path
         d="M 0,0 L 566.929,0 L 566.929,458.334 L 0,458.334 L 0,0 z"
         id="path251" /></clipPath><clipPath
       clipPathUnits="userSpaceOnUse"
       id="clipPath261"><path
         d="M 0,0 L 566.929,0 L 566.929,458.334 L 0,458.334 L 0,0 z"
         id="path263" /></clipPath><clipPath
       clipPathUnits="userSpaceOnUse"
       id="clipPath273"><path
         d="M 0,0 L 566.929,0 L 566.929,458.334 L 0,458.334 L 0,0 z"
         id="path275" /></clipPath><clipPath
       clipPathUnits="userSpaceOnUse"
       id="clipPath285"><path
         d="M 0,0 L 566.929,0 L 566.929,458.334 L 0,458.334 L 0,0 z"
         id="path287" /></clipPath><clipPath
       clipPathUnits="userSpaceOnUse"
       id="clipPath297"><path
         d="M 0,0 L 566.929,0 L 566.929,458.334 L 0,458.334 L 0,0 z"
         id="path299" /></clipPath><clipPath
       clipPathUnits="userSpaceOnUse"
       id="clipPath393"><path
         d="M 0,0 L 566.929,0 L 566.929,458.334 L 0,458.334 L 0,0 z"
         id="path395" /></clipPath><clipPath
       clipPathUnits="userSpaceOnUse"
       id="clipPath405"><path
         d="M 0,0 L 566.929,0 L 566.929,458.334 L 0,458.334 L 0,0 z"
         id="path407" /></clipPath><clipPath
       clipPathUnits="userSpaceOnUse"
       id="clipPath417"><path
         d="M 0,0 L 566.929,0 L 566.929,458.334 L 0,458.334 L 0,0 z"
         id="path419" /></clipPath><clipPath
       clipPathUnits="userSpaceOnUse"
       id="clipPath429"><path
         d="M 0,0 L 566.929,0 L 566.929,458.334 L 0,458.334 L 0,0 z"
         id="path431" /></clipPath><clipPath
       clipPathUnits="userSpaceOnUse"
       id="clipPath441"><path
         d="M 0,0 L 566.929,0 L 566.929,458.334 L 0,458.334 L 0,0 z"
         id="path443" /></clipPath><clipPath
       clipPathUnits="userSpaceOnUse"
       id="clipPath453"><path
         d="M 0,0 L 566.929,0 L 566.929,458.334 L 0,458.334 L 0,0 z"
         id="path455" /></clipPath><clipPath
       clipPathUnits="userSpaceOnUse"
       id="clipPath465"><path
         d="M 0,0 L 566.929,0 L 566.929,458.334 L 0,458.334 L 0,0 z"
         id="path467" /></clipPath><clipPath
       clipPathUnits="userSpaceOnUse"
       id="clipPath477"><path
         d="M 0,0 L 566.929,0 L 566.929,458.334 L 0,458.334 L 0,0 z"
         id="path479" /></clipPath><clipPath
       clipPathUnits="userSpaceOnUse"
       id="clipPath489"><path
         d="M 0,0 L 566.929,0 L 566.929,458.334 L 0,458.334 L 0,0 z"
         id="path491" /></clipPath><clipPath
       clipPathUnits="userSpaceOnUse"
       id="clipPath501"><path
         d="M 0,0 L 566.929,0 L 566.929,458.334 L 0,458.334 L 0,0 z"
         id="path503" /></clipPath><clipPath
       clipPathUnits="userSpaceOnUse"
       id="clipPath523"><path
         d="M 0,0 L 566.929,0 L 566.929,458.334 L 0,458.334 L 0,0 z"
         id="path525" /></clipPath><clipPath
       clipPathUnits="userSpaceOnUse"
       id="clipPath537"><path
         d="M 0,0 L 566.929,0 L 566.929,458.334 L 0,458.334 L 0,0 z"
         id="path539" /></clipPath><clipPath
       clipPathUnits="userSpaceOnUse"
       id="clipPath551"><path
         d="M 0,0 L 566.929,0 L 566.929,458.334 L 0,458.334 L 0,0 z"
         id="path553" /></clipPath><clipPath
       clipPathUnits="userSpaceOnUse"
       id="clipPath565"><path
         d="M 0,0 L 566.929,0 L 566.929,458.334 L 0,458.334 L 0,0 z"
         id="path567" /></clipPath><clipPath
       clipPathUnits="userSpaceOnUse"
       id="clipPath587"><path
         d="M 0,0 L 566.929,0 L 566.929,458.334 L 0,458.334 L 0,0 z"
         id="path589" /></clipPath></defs><sodipodi:namedview
     inkscape:window-height="846"
     inkscape:window-width="1434"
     inkscape:pageshadow="2"
     inkscape:pageopacity="0.0"
     guidetolerance="10.0"
     gridtolerance="10.0"
     objecttolerance="10.0"
     borderopacity="1.0"
     bordercolor="#666666"
     pagecolor="#ffffff"
     id="base"
     showgrid="false"
     inkscape:zoom="0.96575572"
     inkscape:cx="269.55016"
     inkscape:cy="253.17358"
     inkscape:window-x="0"
     inkscape:window-y="0"
     inkscape:current-layer="g11" /><g
     id="g11"
     inkscape:groupmode="layer"
     inkscape:label="example_event_display_3"
     transform="matrix(0,1.25,1.25,0,53.454033,-78.297212)"><g
       id="g3808"
       transform="matrix(0,1,-1,0,499.91277,-54.456388)"><path
         id="path21"
         style="fill:#ffffff;fill-opacity:1;fill-rule:evenodd;stroke:none"
         d="M 56.6929,46.3125 L 57.6929,47.3125 L 57.6929,435.775 L 541.176,435.775 L 542.176,436.775 L 56.6929,436.775 L 56.6929,46.3125" /><path
         id="path23"
         style="fill:#aaaaaa;fill-opacity:1;fill-rule:evenodd;stroke:none"
         d="M 56.6929,46.3125 L 57.6929,47.3125 L 541.176,47.3125 L 541.176,435.775 L 542.176,436.775 L 542.176,46.3125 L 56.6929,46.3125" /><path
         id="path25"
         style="fill:none;stroke:#000000;stroke-width:1;stroke-linecap:butt;stroke-linejoin:miter;stroke-miterlimit:10;stroke-dasharray:none;stroke-opacity:1"
         d="M 56.6929,46.3125 L 542.1759,46.3125 L 542.1759,436.7745 L 56.6929,436.7745 L 56.6929,46.3125 z" /><path
         id="path29"
         style="fill:#ffffff;fill-opacity:1;fill-rule:evenodd;stroke:none"
         d="M 56.6929,46.3125 L 57.6929,47.3125 L 57.6929,435.775 L 541.176,435.775 L 542.176,436.775 L 56.6929,436.775 L 56.6929,46.3125" /><path
         id="path31"
         style="fill:#aaaaaa;fill-opacity:1;fill-rule:evenodd;stroke:none"
         d="M 56.6929,46.3125 L 57.6929,47.3125 L 541.176,47.3125 L 541.176,435.775 L 542.176,436.775 L 542.176,46.3125 L 56.6929,46.3125" /><path
         id="path33"
         style="fill:none;stroke:#000000;stroke-width:1;stroke-linecap:butt;stroke-linejoin:miter;stroke-miterlimit:10;stroke-dasharray:none;stroke-opacity:1"
         d="M 56.6929,46.3125 L 542.1759,46.3125 L 542.1759,436.7745 L 56.6929,436.7745 L 56.6929,46.3125 z" /><path
         id="path35"
         style="fill:none;stroke:#000000;stroke-width:1;stroke-linecap:butt;stroke-linejoin:miter;stroke-miterlimit:10;stroke-dasharray:none;stroke-opacity:1"
         d="M 56.6929,436.775 L 57.8684,436.775 L 57.8684,436.775 L 59.0439,436.775 L 59.0439,436.775 L 60.2194,436.775 L 60.2194,436.775 L 61.3949,436.775 L 61.3949,436.775 L 62.5704,436.775 L 62.5704,436.775 L 63.7459,436.775 L 63.7459,436.775 L 64.9214,436.775 L 64.9214,436.775 L 66.0969,436.775 L 66.0969,436.775 L 67.2724,436.775 L 67.2724,436.775 L 68.448,436.775 L 68.448,436.775 L 69.6235,436.775 L 69.6235,436.775 L 70.799,436.775 L 70.799,436.775 L 71.9745,436.775 L 71.9745,436.775 L 73.15,436.775 L 73.15,436.775 L 74.3255,436.775 L 74.3255,436.775 L 75.501,436.775 L 75.501,436.775 L 76.6765,436.775 L 76.6765,436.775 L 77.852,436.775 L 77.852,436.775 L 79.0275,436.775 L 79.0275,436.775 L 80.203,436.775 L 80.203,436.775 L 81.3785,436.775 L 81.3785,436.775 L 82.554,436.775 L 82.554,436.775 L 83.7295,436.775 L 83.7295,436.775 L 84.905,436.775 L 84.905,436.775 L 86.0805,436.775 L 86.0805,436.775 L 87.256,436.775 L 87.256,436.775 L 88.4315,436.775 L 88.4315,436.775 L 89.607,436.775 L 89.607,436.775 L 90.7825,436.775 L 90.7825,436.775 L 91.958,436.775 L 91.958,436.775 L 93.1335,436.775 L 93.1335,436.775 L 94.309,436.775 L 94.309,436.775 L 95.4845,436.775 L 95.4845,436.775 L 96.66,436.775 L 96.66,436.775 L 97.8355,436.775 L 97.8355,436.775 L 99.011,436.775 L 99.011,436.775 L 100.187,436.775 L 100.187,436.775 L 101.362,436.775 L 101.362,436.775 L 102.538,436.775 L 102.538,436.775 L 103.713,436.775 L 103.713,436.775 L 104.889,436.775 L 104.889,436.775 L 106.064,436.775 L 106.064,436.775 L 107.24,436.775 L 107.24,436.775 L 108.415,436.775 L 108.415,436.775 L 109.591,436.775 L 109.591,436.775 L 110.766,436.775 L 110.766,436.775 L 111.942,436.775 L 111.942,436.775 L 113.117,436.775 L 113.117,436.775 L 114.293,436.775 L 114.293,436.775 L 115.468,436.775 L 115.468,436.775 L 116.644,436.775 L 116.644,436.775 L 117.819,436.775 L 117.819,436.775 L 118.995,436.775 L 118.995,436.775 L 120.17,436.775 L 120.17,436.775 L 121.346,436.775 L 121.346,436.775 L 122.521,436.775 L 122.521,436.775 L 123.697,436.775 L 123.697,436.775 L 124.872,436.775 L 124.872,436.775 L 126.048,436.775 L 126.048,436.775 L 127.223,436.775 L 127.223,436.775 L 128.399,436.775 L 128.399,436.775 L 129.574,436.775 L 129.574,436.775 L 130.75,436.775 L 130.75,436.775 L 131.925,436.775 L 131.925,436.775 L 133.101,436.775 L 133.101,436.775 L 134.276,436.775 L 134.276,436.775 L 135.452,436.775 L 135.452,436.775 L 136.627,436.775 L 136.627,436.775 L 137.803,436.775 L 137.803,436.775 L 138.978,436.775 L 138.978,436.775 L 140.154,436.775 L 140.154,436.775 L 141.329,436.775 L 141.329,436.775 L 142.505,436.775 L 142.505,436.775 L 143.68,436.775 L 143.68,436.775 L 144.856,436.775 L 144.856,436.775 L 146.031,436.775 L 146.031,436.775 L 147.207,436.775 L 147.207,436.775 L 148.382,436.775 L 148.382,436.775 L 149.558,436.775 L 149.558,436.775 L 150.733,436.775 L 150.733,436.775 L 151.909,436.775 L 151.909,436.775 L 153.084,436.775 L 153.084,436.775 L 154.26,436.775 L 154.26,436.775 L 155.435,436.775 L 155.435,436.775 L 156.611,436.775 L 156.611,436.775 L 157.786,436.775 L 157.786,436.775 L 158.962,436.775 L 158.962,436.775 L 160.137,436.775 L 160.137,436.775 L 161.313,436.775 L 161.313,436.775 L 162.488,436.775 L 162.488,436.775 L 163.664,436.775 L 163.664,436.775 L 164.839,436.775 L 164.839,436.775 L 166.015,436.775 L 166.015,436.775 L 167.19,436.775 L 167.19,436.775 L 168.366,436.775 L 168.366,436.775 L 169.541,436.775 L 169.541,436.775 L 170.717,436.775 L 170.717,436.775 L 171.892,436.775 L 171.892,436.775 L 173.068,436.775 L 173.068,436.775 L 174.243,436.775 L 174.243,436.775 L 175.419,436.775 L 175.419,436.775 L 176.594,436.775 L 176.594,436.775 L 177.77,436.775 L 177.77,436.775 L 178.945,436.775 L 178.945,436.775 L 180.121,436.775 L 180.121,436.775 L 181.296,436.775 L 181.296,436.775 L 182.472,436.775 L 182.472,436.775 L 183.647,436.775 L 183.647,436.775 L 184.823,436.775 L 184.823,436.775 L 185.998,436.775 L 185.998,436.775 L 187.174,436.775 L 187.174,436.775 L 188.349,436.775 L 188.349,436.775 L 189.525,436.775 L 189.525,436.775 L 190.7,436.775 L 190.7,436.775 L 191.876,436.775 L 191.876,436.775 L 193.051,436.775 L 193.051,436.775 L 194.227,436.775 L 194.227,436.775 L 195.402,436.775 L 195.402,436.775 L 196.578,436.775 L 196.578,436.775 L 197.753,436.775 L 197.753,436.775 L 198.929,436.775 L 198.929,436.775 L 200.104,436.775 L 200.104,436.775 L 201.28,436.775 L 201.28,436.775 L 202.455,436.775 L 202.455,436.775 L 203.631,436.775 L 203.631,436.775 L 204.806,436.775 L 204.806,436.775 L 205.982,436.775 L 205.982,436.775 L 207.157,436.775 L 207.157,436.775 L 208.333,436.775 L 208.333,436.775 L 209.508,436.775 L 209.508,436.775 L 210.684,436.775 L 210.684,436.775 L 211.859,436.775 L 211.859,436.775 L 213.035,436.775 L 213.035,436.775 L 214.21,436.775 L 214.21,436.775 L 215.386,436.775 L 215.386,436.775 L 216.561,436.775 L 216.561,436.775 L 217.737,436.775 L 217.737,436.775 L 218.912,436.775 L 218.912,436.775 L 220.088,436.775 L 220.088,436.775 L 221.263,436.775 L 221.263,436.775 L 222.439,436.775 L 222.439,436.775 L 223.614,436.775 L 223.614,436.775 L 224.79,436.775 L 224.79,436.775 L 225.965,436.775 L 225.965,436.775 L 227.141,436.775 L 227.141,436.775 L 228.316,436.775 L 228.316,436.775 L 229.492,436.775 L 229.492,436.775 L 230.667,436.775 L 230.667,436.775 L 231.843,436.775 L 231.843,436.775 L 233.018,436.775 L 233.018,436.775 L 234.194,436.775 L 234.194,436.775 L 235.369,436.775 L 235.369,436.775 L 236.545,436.775 L 236.545,436.775 L 237.72,436.775 L 237.72,436.775 L 238.896,436.775 L 238.896,436.775 L 240.071,436.775 L 240.071,436.775 L 241.247,436.775 L 241.247,436.775 L 242.422,436.775 L 242.422,436.775 L 243.598,436.775 L 243.598,436.775 L 244.773,436.775 L 244.773,436.775 L 245.949,436.775 L 245.949,436.775 L 247.124,436.775 L 247.124,436.775 L 248.3,436.775 L 248.3,436.775 L 249.475,436.775 L 249.475,436.775 L 250.651,436.775 L 250.651,436.775 L 251.827,436.775 L 251.827,436.775 L 253.002,436.775 L 253.002,436.775 L 254.178,436.775 L 254.178,436.775 L 255.353,436.775 L 255.353,436.775 L 256.529,436.775 L 256.529,436.775 L 257.704,436.775 L 257.704,436.775 L 258.88,436.775 L 258.88,436.775 L 260.055,436.775 L 260.055,436.775 L 261.231,436.775 L 261.231,436.775 L 262.406,436.775 L 262.406,436.775 L 263.582,436.775 L 263.582,436.775 L 264.757,436.775 L 264.757,436.775 L 265.933,436.775 L 265.933,436.775 L 267.108,436.775 L 267.108,436.775 L 268.284,436.775 L 268.284,436.775 L 269.459,436.775 L 269.459,436.775 L 270.635,436.775 L 270.635,436.775 L 271.81,436.775 L 271.81,436.775 L 272.986,436.775 L 272.986,436.775 L 274.161,436.775 L 274.161,436.775 L 275.337,436.775 L 275.337,436.775 L 276.512,436.775 L 276.512,436.775 L 277.688,436.775 L 277.688,436.775 L 278.863,436.775 L 278.863,436.775 L 280.039,436.775 L 280.039,436.775 L 281.214,436.775 L 281.214,436.775 L 282.39,436.775 L 282.39,436.775 L 283.565,436.775 L 283.565,436.775 L 284.741,436.775 L 284.741,436.775 L 285.916,436.775 L 285.916,436.775 L 287.092,436.775 L 287.092,436.775 L 288.267,436.775 L 288.267,436.775 L 289.443,436.775 L 289.443,436.775 L 290.618,436.775 L 290.618,436.775 L 291.794,436.775 L 291.794,436.775 L 292.969,436.775 L 292.969,436.775 L 294.145,436.775 L 294.145,436.775 L 295.32,436.775 L 295.32,436.775 L 296.496,436.775 L 296.496,436.775 L 297.671,436.775 L 297.671,436.775 L 298.847,436.775 L 298.847,436.775 L 300.022,436.775 L 300.022,436.775 L 301.198,436.775 L 301.198,436.775 L 302.373,436.775 L 302.373,436.775 L 303.549,436.775 L 303.549,436.775 L 304.724,436.775 L 304.724,436.775 L 305.9,436.775 L 305.9,436.775 L 307.075,436.775 L 307.075,436.775 L 308.251,436.775 L 308.251,436.775 L 309.426,436.775 L 309.426,436.775 L 310.602,436.775 L 310.602,436.775 L 311.777,436.775 L 311.777,436.775 L 312.953,436.775 L 312.953,436.775 L 314.128,436.775 L 314.128,436.775 L 315.304,436.775 L 315.304,436.775 L 316.479,436.775 L 316.479,436.775 L 317.655,436.775 L 317.655,436.775 L 318.83,436.775 L 318.83,436.775 L 320.006,436.775 L 320.006,436.775 L 321.181,436.775 L 321.181,436.775 L 322.357,436.775 L 322.357,436.775 L 323.532,436.775 L 323.532,436.775 L 324.708,436.775 L 324.708,436.775 L 325.883,436.775 L 325.883,436.775 L 327.059,436.775 L 327.059,436.775 L 328.234,436.775 L 328.234,436.775 L 329.41,436.775 L 329.41,436.775 L 330.585,436.775 L 330.585,436.775 L 331.761,436.775 L 331.761,436.775 L 332.936,436.775 L 332.936,436.775 L 334.112,436.775 L 334.112,436.775 L 335.287,436.775 L 335.287,436.775 L 336.463,436.775 L 336.463,436.775 L 337.638,436.775 L 337.638,436.775 L 338.814,436.775 L 338.814,436.775 L 339.989,436.775 L 339.989,436.775 L 341.165,436.775 L 341.165,436.775 L 342.34,436.775 L 342.34,436.775 L 343.516,436.775 L 343.516,436.775 L 344.691,436.775 L 344.691,436.775 L 345.867,436.775 L 345.867,436.775 L 347.042,436.775 L 347.042,436.775 L 348.218,436.775 L 348.218,436.775 L 349.393,436.775 L 349.393,436.775 L 350.569,436.775 L 350.569,436.775 L 351.744,436.775 L 351.744,436.775 L 352.92,436.775 L 352.92,436.775 L 354.095,436.775 L 354.095,436.775 L 355.271,436.775 L 355.271,436.775 L 356.446,436.775 L 356.446,436.775 L 357.622,436.775 L 357.622,436.775 L 358.797,436.775 L 358.797,436.775 L 359.973,436.775 L 359.973,436.775 L 361.148,436.775 L 361.148,436.775 L 362.324,436.775 L 362.324,436.775 L 363.499,436.775 L 363.499,436.775 L 364.675,436.775 L 364.675,436.775 L 365.85,436.775 L 365.85,436.775 L 367.026,436.775 L 367.026,436.775 L 368.201,436.775 L 368.201,436.775 L 369.377,436.775 L 369.377,436.775 L 370.552,436.775 L 370.552,436.775 L 371.728,436.775 L 371.728,436.775 L 372.903,436.775 L 372.903,436.775 L 374.079,436.775 L 374.079,436.775 L 375.254,436.775 L 375.254,436.775 L 376.43,436.775 L 376.43,436.775 L 377.605,436.775 L 377.605,436.775 L 378.781,436.775 L 378.781,436.775 L 379.956,436.775 L 379.956,436.775 L 381.132,436.775 L 381.132,436.775 L 382.307,436.775 L 382.307,436.775 L 383.483,436.775 L 383.483,436.775 L 384.658,436.775 L 384.658,436.775 L 385.834,436.775 L 385.834,436.775 L 387.009,436.775 L 387.009,436.775 L 388.185,436.775 L 388.185,436.775 L 389.36,436.775 L 389.36,436.775 L 390.536,436.775 L 390.536,436.775 L 391.711,436.775 L 391.711,436.775 L 392.887,436.775 L 392.887,436.775 L 394.062,436.775 L 394.062,436.775 L 395.238,436.775 L 395.238,436.775 L 396.413,436.775 L 396.413,436.775 L 397.589,436.775 L 397.589,436.775 L 398.764,436.775 L 398.764,436.775 L 399.94,436.775 L 399.94,436.775 L 401.115,436.775 L 401.115,436.775 L 402.291,436.775 L 402.291,436.775 L 403.466,436.775 L 403.466,436.775 L 404.642,436.775 L 404.642,436.775 L 405.817,436.775 L 405.817,436.775 L 406.993,436.775 L 406.993,436.775 L 408.168,436.775 L 408.168,436.775 L 409.344,436.775 L 409.344,436.775 L 410.52,436.775 L 410.52,436.775 L 411.695,436.775 L 411.695,436.775 L 412.87,436.775 L 412.87,436.775 L 414.046,436.775 L 414.046,436.775 L 415.221,436.775 L 415.221,436.775 L 416.397,436.775 L 416.397,436.775 L 417.573,436.775 L 417.573,436.775 L 418.748,436.775 L 418.748,436.775 L 419.924,436.775 L 419.924,436.775 L 421.099,436.775 L 421.099,436.775 L 422.275,436.775 L 422.275,436.775 L 423.45,436.775 L 423.45,436.775 L 424.626,436.775 L 424.626,436.775 L 425.801,436.775 L 425.801,436.775 L 426.977,436.775 L 426.977,436.775 L 428.152,436.775 L 428.152,436.775 L 429.328,436.775 L 429.328,436.775 L 430.503,436.775 L 430.503,436.775 L 431.679,436.775 L 431.679,436.775 L 432.854,436.775 L 432.854,436.775 L 434.03,436.775 L 434.03,436.775 L 435.205,436.775 L 435.205,436.775 L 436.381,436.775 L 436.381,436.775 L 437.556,436.775 L 437.556,436.775 L 438.732,436.775 L 438.732,436.775 L 439.907,436.775 L 439.907,436.775 L 441.083,436.775 L 441.083,436.775 L 442.258,436.775 L 442.258,436.775 L 443.434,436.775 L 443.434,436.775 L 444.609,436.775 L 444.609,436.775 L 445.785,436.775 L 445.785,436.775 L 446.96,436.775 L 446.96,436.775 L 448.136,436.775 L 448.136,436.775 L 449.311,436.775 L 449.311,436.775 L 450.487,436.775 L 450.487,436.775 L 451.662,436.775 L 451.662,436.775 L 452.838,436.775 L 452.838,436.775 L 454.013,436.775 L 454.013,436.775 L 455.189,436.775 L 455.189,436.775 L 456.364,436.775 L 456.364,436.775 L 457.54,436.775 L 457.54,436.775 L 458.715,436.775 L 458.715,436.775 L 459.891,436.775 L 459.891,436.775 L 461.066,436.775 L 461.066,436.775 L 462.242,436.775 L 462.242,436.775 L 463.417,436.775 L 463.417,436.775 L 464.593,436.775 L 464.593,436.775 L 465.768,436.775 L 465.768,436.775 L 466.944,436.775 L 466.944,436.775 L 468.119,436.775 L 468.119,436.775 L 469.295,436.775 L 469.295,436.775 L 470.47,436.775 L 470.47,436.775 L 471.646,436.775 L 471.646,436.775 L 472.821,436.775 L 472.821,436.775 L 473.997,436.775 L 473.997,436.775 L 475.172,436.775 L 475.172,436.775 L 476.348,436.775 L 476.348,436.775 L 477.523,436.775 L 477.523,436.775 L 478.699,436.775 L 478.699,436.775 L 479.874,436.775 L 479.874,436.775 L 481.05,436.775 L 481.05,436.775 L 482.225,436.775 L 482.225,436.775 L 483.401,436.775 L 483.401,436.775 L 484.576,436.775 L 484.576,436.775 L 485.752,436.775 L 485.752,436.775 L 486.927,436.775 L 486.927,436.775 L 488.103,436.775 L 488.103,436.775 L 489.278,436.775 L 489.278,436.775 L 490.454,436.775 L 490.454,436.775 L 491.629,436.775 L 491.629,436.775 L 492.805,436.775 L 492.805,436.775 L 493.98,436.775 L 493.98,436.775 L 495.156,436.775 L 495.156,436.775 L 496.331,436.775 L 496.331,436.775 L 497.507,436.775 L 497.507,436.775 L 498.682,436.775 L 498.682,436.775 L 499.858,436.775 L 499.858,436.775 L 501.033,436.775 L 501.033,436.775 L 502.209,436.775 L 502.209,436.775 L 503.384,436.775 L 503.384,436.775 L 504.56,436.775 L 504.56,436.775 L 505.735,436.775 L 505.735,436.775 L 506.911,436.775 L 506.911,436.775 L 508.086,436.775 L 508.086,436.775 L 509.262,436.775 L 509.262,436.775 L 510.437,436.775 L 510.437,436.775 L 511.613,436.775 L 511.613,436.775 L 512.788,436.775 L 512.788,436.775 L 513.964,436.775 L 513.964,436.775 L 515.139,436.775 L 515.139,436.775 L 516.315,436.775 L 516.315,436.775 L 517.49,436.775 L 517.49,436.775 L 518.666,436.775 L 518.666,436.775 L 519.841,436.775 L 519.841,436.775 L 521.017,436.775 L 521.017,436.775 L 522.192,436.775 L 522.192,436.775 L 523.368,436.775 L 523.368,436.775 L 524.543,436.775 L 524.543,436.775 L 525.719,436.775 L 525.719,436.775 L 526.894,436.775 L 526.894,436.775 L 528.07,436.775 L 528.07,436.775 L 529.245,436.775 L 529.245,436.775 L 530.421,436.775 L 530.421,436.775 L 531.596,436.775 L 531.596,436.775 L 532.772,436.775 L 532.772,436.775 L 533.947,436.775 L 533.947,436.775 L 535.123,436.775 L 535.123,436.775 L 536.298,436.775 L 536.298,436.775 L 537.474,436.775 L 537.474,436.775 L 538.649,436.775 L 538.649,436.775 L 539.825,436.775 L 539.825,436.775 L 541,436.775 L 541,436.775 L 542.176,436.775" /><path
         id="path37"
         style="fill:none;stroke:#000000;stroke-width:1;stroke-linecap:butt;stroke-linejoin:miter;stroke-miterlimit:10;stroke-dasharray:none;stroke-opacity:1"
         d="M 56.6929,46.3125 L 542.176,46.3125" /><g
         id="g39"><g
           clip-path="url(#clipPath43)"
           id="g41"><text
             id="text47"
             transform="matrix(1,0,0,-1,287.32759,12.7759)"><tspan
               id="tspan49"
               sodipodi:role="line"
               y="0"
               x="0 5.5838437 12.106712 21.429888 31.675318"
               style="font-size:16.7682991px;font-variant:normal;font-weight:bold;writing-mode:lr-tb;fill:#000000;fill-opacity:1;fill-rule:nonzero;stroke:none;font-family:Helvetica;-inkscape-font-specification:Helvetica-Bold">(rad)</tspan></text>
</g></g><g
         id="g51"><g
           clip-path="url(#clipPath55)"
           id="g53"><text
             id="text59"
             transform="matrix(1,0,0,-1,273.883,12.7759)"><tspan
               id="tspan61"
               y="0"
               x="0"
               style="font-size:16.7682991px;font-variant:normal;font-weight:normal;writing-mode:lr-tb;fill:#000000;fill-opacity:1;fill-rule:nonzero;stroke:none;font-family:Symbol;-inkscape-font-specification:Symbol">φ</tspan></text>
</g></g><path
         id="path63"
         style="fill:none;stroke:#000000;stroke-width:1;stroke-linecap:butt;stroke-linejoin:miter;stroke-miterlimit:10;stroke-dasharray:none;stroke-opacity:1"
         d="M 139.293,58.0872 L 139.293,46.3125" /><path
         id="path65"
         style="fill:none;stroke:#000000;stroke-width:1;stroke-linecap:butt;stroke-linejoin:miter;stroke-miterlimit:10;stroke-dasharray:none;stroke-opacity:1"
         d="M 158.001,52.1999 L 158.001,46.3125" /><path
         id="path67"
         style="fill:none;stroke:#000000;stroke-width:1;stroke-linecap:butt;stroke-linejoin:miter;stroke-miterlimit:10;stroke-dasharray:none;stroke-opacity:1"
         d="M 176.71,52.1999 L 176.71,46.3125" /><path
         id="path69"
         style="fill:none;stroke:#000000;stroke-width:1;stroke-linecap:butt;stroke-linejoin:miter;stroke-miterlimit:10;stroke-dasharray:none;stroke-opacity:1"
         d="M 195.419,52.1999 L 195.419,46.3125" /><path
         id="path71"
         style="fill:none;stroke:#000000;stroke-width:1;stroke-linecap:butt;stroke-linejoin:miter;stroke-miterlimit:10;stroke-dasharray:none;stroke-opacity:1"
         d="M 214.128,52.1999 L 214.128,46.3125" /><path
         id="path73"
         style="fill:none;stroke:#000000;stroke-width:1;stroke-linecap:butt;stroke-linejoin:miter;stroke-miterlimit:10;stroke-dasharray:none;stroke-opacity:1"
         d="M 232.836,58.0872 L 232.836,46.3125" /><path
         id="path75"
         style="fill:none;stroke:#000000;stroke-width:1;stroke-linecap:butt;stroke-linejoin:miter;stroke-miterlimit:10;stroke-dasharray:none;stroke-opacity:1"
         d="M 251.545,52.1999 L 251.545,46.3125" /><path
         id="path77"
         style="fill:none;stroke:#000000;stroke-width:1;stroke-linecap:butt;stroke-linejoin:miter;stroke-miterlimit:10;stroke-dasharray:none;stroke-opacity:1"
         d="M 270.254,52.1999 L 270.254,46.3125" /><path
         id="path79"
         style="fill:none;stroke:#000000;stroke-width:1;stroke-linecap:butt;stroke-linejoin:miter;stroke-miterlimit:10;stroke-dasharray:none;stroke-opacity:1"
         d="M 288.962,52.1999 L 288.962,46.3125" /><path
         id="path81"
         style="fill:none;stroke:#000000;stroke-width:1;stroke-linecap:butt;stroke-linejoin:miter;stroke-miterlimit:10;stroke-dasharray:none;stroke-opacity:1"
         d="M 307.671,52.1999 L 307.671,46.3125" /><path
         id="path83"
         style="fill:none;stroke:#000000;stroke-width:1;stroke-linecap:butt;stroke-linejoin:miter;stroke-miterlimit:10;stroke-dasharray:none;stroke-opacity:1"
         d="M 326.38,58.0872 L 326.38,46.3125" /><path
         id="path85"
         style="fill:none;stroke:#000000;stroke-width:1;stroke-linecap:butt;stroke-linejoin:miter;stroke-miterlimit:10;stroke-dasharray:none;stroke-opacity:1"
         d="M 345.089,52.1999 L 345.089,46.3125" /><path
         id="path87"
         style="fill:none;stroke:#000000;stroke-width:1;stroke-linecap:butt;stroke-linejoin:miter;stroke-miterlimit:10;stroke-dasharray:none;stroke-opacity:1"
         d="M 363.797,52.1999 L 363.797,46.3125" /><path
         id="path89"
         style="fill:none;stroke:#000000;stroke-width:1;stroke-linecap:butt;stroke-linejoin:miter;stroke-miterlimit:10;stroke-dasharray:none;stroke-opacity:1"
         d="M 382.506,52.1999 L 382.506,46.3125" /><path
         id="path91"
         style="fill:none;stroke:#000000;stroke-width:1;stroke-linecap:butt;stroke-linejoin:miter;stroke-miterlimit:10;stroke-dasharray:none;stroke-opacity:1"
         d="M 401.215,52.1999 L 401.215,46.3125" /><path
         id="path93"
         style="fill:none;stroke:#000000;stroke-width:1;stroke-linecap:butt;stroke-linejoin:miter;stroke-miterlimit:10;stroke-dasharray:none;stroke-opacity:1"
         d="M 419.924,58.0872 L 419.924,46.3125" /><path
         id="path95"
         style="fill:none;stroke:#000000;stroke-width:1;stroke-linecap:butt;stroke-linejoin:miter;stroke-miterlimit:10;stroke-dasharray:none;stroke-opacity:1"
         d="M 438.632,52.1999 L 438.632,46.3125" /><path
         id="path97"
         style="fill:none;stroke:#000000;stroke-width:1;stroke-linecap:butt;stroke-linejoin:miter;stroke-miterlimit:10;stroke-dasharray:none;stroke-opacity:1"
         d="M 457.341,52.1999 L 457.341,46.3125" /><path
         id="path99"
         style="fill:none;stroke:#000000;stroke-width:1;stroke-linecap:butt;stroke-linejoin:miter;stroke-miterlimit:10;stroke-dasharray:none;stroke-opacity:1"
         d="M 476.05,52.1999 L 476.05,46.3125" /><path
         id="path101"
         style="fill:none;stroke:#000000;stroke-width:1;stroke-linecap:butt;stroke-linejoin:miter;stroke-miterlimit:10;stroke-dasharray:none;stroke-opacity:1"
         d="M 494.758,52.1999 L 494.758,46.3125" /><path
         id="path103"
         style="fill:none;stroke:#000000;stroke-width:1;stroke-linecap:butt;stroke-linejoin:miter;stroke-miterlimit:10;stroke-dasharray:none;stroke-opacity:1"
         d="M 513.467,58.0872 L 513.467,46.3125" /><path
         id="path105"
         style="fill:none;stroke:#000000;stroke-width:1;stroke-linecap:butt;stroke-linejoin:miter;stroke-miterlimit:10;stroke-dasharray:none;stroke-opacity:1"
         d="M 139.293,58.0872 L 139.293,46.3125" /><path
         id="path107"
         style="fill:none;stroke:#000000;stroke-width:1;stroke-linecap:butt;stroke-linejoin:miter;stroke-miterlimit:10;stroke-dasharray:none;stroke-opacity:1"
         d="M 120.584,52.1999 L 120.584,46.3125" /><path
         id="path109"
         style="fill:none;stroke:#000000;stroke-width:1;stroke-linecap:butt;stroke-linejoin:miter;stroke-miterlimit:10;stroke-dasharray:none;stroke-opacity:1"
         d="M 101.875,52.1999 L 101.875,46.3125" /><path
         id="path111"
         style="fill:none;stroke:#000000;stroke-width:1;stroke-linecap:butt;stroke-linejoin:miter;stroke-miterlimit:10;stroke-dasharray:none;stroke-opacity:1"
         d="M 83.1665,52.1999 L 83.1665,46.3125" /><path
         id="path113"
         style="fill:none;stroke:#000000;stroke-width:1;stroke-linecap:butt;stroke-linejoin:miter;stroke-miterlimit:10;stroke-dasharray:none;stroke-opacity:1"
         d="M 64.4578,52.1999 L 64.4578,46.3125" /><path
         id="path115"
         style="fill:none;stroke:#000000;stroke-width:1;stroke-linecap:butt;stroke-linejoin:miter;stroke-miterlimit:10;stroke-dasharray:none;stroke-opacity:1"
         d="M 513.467,58.0872 L 513.467,46.3125" /><path
         id="path117"
         style="fill:none;stroke:#000000;stroke-width:1;stroke-linecap:butt;stroke-linejoin:miter;stroke-miterlimit:10;stroke-dasharray:none;stroke-opacity:1"
         d="M 532.176,52.1999 L 532.176,46.3125" /><g
         id="g119"><g
           clip-path="url(#clipPath123)"
           id="g121"><text
             id="text127"
             transform="matrix(1,0,0,-1,124.565,29.5442)"><tspan
               id="tspan129"
               sodipodi:role="line"
               y="0"
               x="0 5.5838437 14.907019 19.568605"
               style="font-size:16.7682991px;font-variant:normal;font-weight:bold;writing-mode:lr-tb;fill:#000000;fill-opacity:1;fill-rule:nonzero;stroke:none;font-family:Helvetica;-inkscape-font-specification:Helvetica-Bold">-1.5</tspan></text>
</g></g><g
         id="g131"><g
           clip-path="url(#clipPath135)"
           id="g133"><text
             id="text139"
             transform="matrix(1,0,0,-1,225.973,29.5442)"><tspan
               id="tspan141"
               sodipodi:role="line"
               y="0"
               x="0 5.5838437"
               style="font-size:16.7682991px;font-variant:normal;font-weight:bold;writing-mode:lr-tb;fill:#000000;fill-opacity:1;fill-rule:nonzero;stroke:none;font-family:Helvetica;-inkscape-font-specification:Helvetica-Bold">-1</tspan></text>
</g></g><g
         id="g143"><g
           clip-path="url(#clipPath147)"
           id="g145"><text
             id="text151"
             transform="matrix(1,0,0,-1,311.412,29.5442)"><tspan
               id="tspan153"
               sodipodi:role="line"
               y="0"
               x="0 5.5838437 14.907019 19.568605"
               style="font-size:16.7682991px;font-variant:normal;font-weight:bold;writing-mode:lr-tb;fill:#000000;fill-opacity:1;fill-rule:nonzero;stroke:none;font-family:Helvetica;-inkscape-font-specification:Helvetica-Bold">-0.5</tspan></text>
</g></g><g
         id="g155"><g
           clip-path="url(#clipPath159)"
           id="g157"><text
             id="text163"
             transform="matrix(1,0,0,-1,414.417,29.5442)"><tspan
               id="tspan165"
               y="0"
               x="0"
               style="font-size:16.7682991px;font-variant:normal;font-weight:bold;writing-mode:lr-tb;fill:#000000;fill-opacity:1;fill-rule:nonzero;stroke:none;font-family:Helvetica;-inkscape-font-specification:Helvetica-Bold">0</tspan></text>
</g></g><g
         id="g167"><g
           clip-path="url(#clipPath171)"
           id="g169"><text
             id="text175"
             transform="matrix(1,0,0,-1,501.453,29.5442)"><tspan
               id="tspan177"
               sodipodi:role="line"
               y="0"
               x="0 9.3231745 13.984762"
               style="font-size:16.7682991px;font-variant:normal;font-weight:bold;writing-mode:lr-tb;fill:#000000;fill-opacity:1;fill-rule:nonzero;stroke:none;font-family:Helvetica;-inkscape-font-specification:Helvetica-Bold">0.5</tspan></text>
</g></g><path
         id="path179"
         style="fill:none;stroke:#000000;stroke-width:1;stroke-linecap:butt;stroke-linejoin:miter;stroke-miterlimit:10;stroke-dasharray:none;stroke-opacity:1"
         d="M 56.6929,46.3125 L 56.6929,436.775" /><g
         id="g181"><g
           clip-path="url(#clipPath185)"
           id="g183"><text
             id="text189"
             transform="matrix(0,1,1,0,22.3578,237.152)"><tspan
               id="tspan191"
               y="0"
               x="0"
               style="font-size:16.7682991px;font-variant:normal;font-weight:normal;writing-mode:lr-tb;fill:#000000;fill-opacity:1;fill-rule:nonzero;stroke:none;font-family:Symbol;-inkscape-font-specification:Symbol">η</tspan></text>
</g></g><path
         id="path193"
         style="fill:none;stroke:#000000;stroke-width:1;stroke-linecap:butt;stroke-linejoin:miter;stroke-miterlimit:10;stroke-dasharray:none;stroke-opacity:1"
         d="M 71.1822,93.2113 L 56.6929,93.2113" /><path
         id="path195"
         style="fill:none;stroke:#000000;stroke-width:1;stroke-linecap:butt;stroke-linejoin:miter;stroke-miterlimit:10;stroke-dasharray:none;stroke-opacity:1"
         d="M 63.9376,109.075 L 56.6929,109.075" /><path
         id="path197"
         style="fill:none;stroke:#000000;stroke-width:1;stroke-linecap:butt;stroke-linejoin:miter;stroke-miterlimit:10;stroke-dasharray:none;stroke-opacity:1"
         d="M 63.9376,124.939 L 56.6929,124.939" /><path
         id="path199"
         style="fill:none;stroke:#000000;stroke-width:1;stroke-linecap:butt;stroke-linejoin:miter;stroke-miterlimit:10;stroke-dasharray:none;stroke-opacity:1"
         d="M 63.9376,140.803 L 56.6929,140.803" /><path
         id="path201"
         style="fill:none;stroke:#000000;stroke-width:1;stroke-linecap:butt;stroke-linejoin:miter;stroke-miterlimit:10;stroke-dasharray:none;stroke-opacity:1"
         d="M 63.9376,156.666 L 56.6929,156.666" /><path
         id="path203"
         style="fill:none;stroke:#000000;stroke-width:1;stroke-linecap:butt;stroke-linejoin:miter;stroke-miterlimit:10;stroke-dasharray:none;stroke-opacity:1"
         d="M 71.1822,172.53 L 56.6929,172.53" /><path
         id="path205"
         style="fill:none;stroke:#000000;stroke-width:1;stroke-linecap:butt;stroke-linejoin:miter;stroke-miterlimit:10;stroke-dasharray:none;stroke-opacity:1"
         d="M 63.9376,188.394 L 56.6929,188.394" /><path
         id="path207"
         style="fill:none;stroke:#000000;stroke-width:1;stroke-linecap:butt;stroke-linejoin:miter;stroke-miterlimit:10;stroke-dasharray:none;stroke-opacity:1"
         d="M 63.9376,204.258 L 56.6929,204.258" /><path
         id="path209"
         style="fill:none;stroke:#000000;stroke-width:1;stroke-linecap:butt;stroke-linejoin:miter;stroke-miterlimit:10;stroke-dasharray:none;stroke-opacity:1"
         d="M 63.9376,220.122 L 56.6929,220.122" /><path
         id="path211"
         style="fill:none;stroke:#000000;stroke-width:1;stroke-linecap:butt;stroke-linejoin:miter;stroke-miterlimit:10;stroke-dasharray:none;stroke-opacity:1"
         d="M 63.9376,235.986 L 56.6929,235.986" /><path
         id="path213"
         style="fill:none;stroke:#000000;stroke-width:1;stroke-linecap:butt;stroke-linejoin:miter;stroke-miterlimit:10;stroke-dasharray:none;stroke-opacity:1"
         d="M 71.1822,251.849 L 56.6929,251.849" /><path
         id="path215"
         style="fill:none;stroke:#000000;stroke-width:1;stroke-linecap:butt;stroke-linejoin:miter;stroke-miterlimit:10;stroke-dasharray:none;stroke-opacity:1"
         d="M 63.9376,267.713 L 56.6929,267.713" /><path
         id="path217"
         style="fill:none;stroke:#000000;stroke-width:1;stroke-linecap:butt;stroke-linejoin:miter;stroke-miterlimit:10;stroke-dasharray:none;stroke-opacity:1"
         d="M 63.9376,283.577 L 56.6929,283.577" /><path
         id="path219"
         style="fill:none;stroke:#000000;stroke-width:1;stroke-linecap:butt;stroke-linejoin:miter;stroke-miterlimit:10;stroke-dasharray:none;stroke-opacity:1"
         d="M 63.9376,299.441 L 56.6929,299.441" /><path
         id="path221"
         style="fill:none;stroke:#000000;stroke-width:1;stroke-linecap:butt;stroke-linejoin:miter;stroke-miterlimit:10;stroke-dasharray:none;stroke-opacity:1"
         d="M 63.9376,315.305 L 56.6929,315.305" /><path
         id="path223"
         style="fill:none;stroke:#000000;stroke-width:1;stroke-linecap:butt;stroke-linejoin:miter;stroke-miterlimit:10;stroke-dasharray:none;stroke-opacity:1"
         d="M 71.1822,331.168 L 56.6929,331.168" /><path
         id="path225"
         style="fill:none;stroke:#000000;stroke-width:1;stroke-linecap:butt;stroke-linejoin:miter;stroke-miterlimit:10;stroke-dasharray:none;stroke-opacity:1"
         d="M 63.9376,347.032 L 56.6929,347.032" /><path
         id="path227"
         style="fill:none;stroke:#000000;stroke-width:1;stroke-linecap:butt;stroke-linejoin:miter;stroke-miterlimit:10;stroke-dasharray:none;stroke-opacity:1"
         d="M 63.9376,362.896 L 56.6929,362.896" /><path
         id="path229"
         style="fill:none;stroke:#000000;stroke-width:1;stroke-linecap:butt;stroke-linejoin:miter;stroke-miterlimit:10;stroke-dasharray:none;stroke-opacity:1"
         d="M 63.9376,378.76 L 56.6929,378.76" /><path
         id="path231"
         style="fill:none;stroke:#000000;stroke-width:1;stroke-linecap:butt;stroke-linejoin:miter;stroke-miterlimit:10;stroke-dasharray:none;stroke-opacity:1"
         d="M 63.9376,394.624 L 56.6929,394.624" /><path
         id="path233"
         style="fill:none;stroke:#000000;stroke-width:1;stroke-linecap:butt;stroke-linejoin:miter;stroke-miterlimit:10;stroke-dasharray:none;stroke-opacity:1"
         d="M 71.1822,410.487 L 56.6929,410.487" /><path
         id="path235"
         style="fill:none;stroke:#000000;stroke-width:1;stroke-linecap:butt;stroke-linejoin:miter;stroke-miterlimit:10;stroke-dasharray:none;stroke-opacity:1"
         d="M 71.1822,93.2113 L 56.6929,93.2113" /><path
         id="path237"
         style="fill:none;stroke:#000000;stroke-width:1;stroke-linecap:butt;stroke-linejoin:miter;stroke-miterlimit:10;stroke-dasharray:none;stroke-opacity:1"
         d="M 63.9376,77.3475 L 56.6929,77.3475" /><path
         id="path239"
         style="fill:none;stroke:#000000;stroke-width:1;stroke-linecap:butt;stroke-linejoin:miter;stroke-miterlimit:10;stroke-dasharray:none;stroke-opacity:1"
         d="M 63.9376,61.4836 L 56.6929,61.4836" /><path
         id="path241"
         style="fill:none;stroke:#000000;stroke-width:1;stroke-linecap:butt;stroke-linejoin:miter;stroke-miterlimit:10;stroke-dasharray:none;stroke-opacity:1"
         d="M 71.1822,410.487 L 56.6929,410.487" /><path
         id="path243"
         style="fill:none;stroke:#000000;stroke-width:1;stroke-linecap:butt;stroke-linejoin:miter;stroke-miterlimit:10;stroke-dasharray:none;stroke-opacity:1"
         d="M 63.9376,426.351 L 56.6929,426.351" /><g
         id="g245"><g
           clip-path="url(#clipPath249)"
           id="g247"><text
             id="text253"
             transform="matrix(1,0,0,-1,24.7532,87.0356)"><tspan
               id="tspan255"
               sodipodi:role="line"
               y="0"
               x="0 5.5838437 14.907019 19.568605"
               style="font-size:16.7682991px;font-variant:normal;font-weight:bold;writing-mode:lr-tb;fill:#000000;fill-opacity:1;fill-rule:nonzero;stroke:none;font-family:Helvetica;-inkscape-font-specification:Helvetica-Bold">-1.5</tspan></text>
</g></g><g
         id="g257"><g
           clip-path="url(#clipPath261)"
           id="g259"><text
             id="text265"
             transform="matrix(1,0,0,-1,40.7231,166.086)"><tspan
               id="tspan267"
               sodipodi:role="line"
               y="0"
               x="0 5.5838437"
               style="font-size:16.7682991px;font-variant:normal;font-weight:bold;writing-mode:lr-tb;fill:#000000;fill-opacity:1;fill-rule:nonzero;stroke:none;font-family:Helvetica;-inkscape-font-specification:Helvetica-Bold">-1</tspan></text>
</g></g><g
         id="g269"><g
           clip-path="url(#clipPath273)"
           id="g271"><text
             id="text277"
             transform="matrix(1,0,0,-1,24.7532,245.935)"><tspan
               id="tspan279"
               sodipodi:role="line"
               y="0"
               x="0 5.5838437 14.907019 19.568605"
               style="font-size:16.7682991px;font-variant:normal;font-weight:bold;writing-mode:lr-tb;fill:#000000;fill-opacity:1;fill-rule:nonzero;stroke:none;font-family:Helvetica;-inkscape-font-specification:Helvetica-Bold">-0.5</tspan></text>
</g></g><g
         id="g281"><g
           clip-path="url(#clipPath285)"
           id="g283"><text
             id="text289"
             transform="matrix(1,0,0,-1,44.7155,324.986)"><tspan
               id="tspan291"
               y="0"
               x="0"
               style="font-size:16.7682991px;font-variant:normal;font-weight:bold;writing-mode:lr-tb;fill:#000000;fill-opacity:1;fill-rule:nonzero;stroke:none;font-family:Helvetica;-inkscape-font-specification:Helvetica-Bold">0</tspan></text>
</g></g><g
         id="g293"><g
           clip-path="url(#clipPath297)"
           id="g295"><text
             id="text301"
             transform="matrix(1,0,0,-1,30.3427,404.835)"><tspan
               id="tspan303"
               sodipodi:role="line"
               y="0"
               x="0 9.3231745 13.984762"
               style="font-size:16.7682991px;font-variant:normal;font-weight:bold;writing-mode:lr-tb;fill:#000000;fill-opacity:1;fill-rule:nonzero;stroke:none;font-family:Helvetica;-inkscape-font-specification:Helvetica-Bold">0.5</tspan></text>
</g></g><path
         id="path305"
         style="fill:#ccccff;fill-opacity:1;fill-rule:evenodd;stroke:none"
         d="M 371.119,289.607 L 370.288,294.283 L 367.868,298.543 L 364.075,302.01 L 359.245,304.374 L 353.808,305.426 L 348.247,305.073 L 343.056,303.345 L 338.696,300.397 L 335.554,296.49 L 333.91,291.971 L 333.91,287.242 L 335.554,282.724 L 338.696,278.817 L 343.056,275.868 L 348.247,274.141 L 353.808,273.787 L 359.245,274.84 L 364.075,277.204 L 367.868,280.67 L 370.288,284.931" /><path
         id="path307"
         style="fill:none;stroke:#ccccff;stroke-width:1;stroke-linecap:butt;stroke-linejoin:miter;stroke-miterlimit:10;stroke-dasharray:none;stroke-opacity:1"
         d="M 371.119,289.607 L 370.288,294.283 L 367.868,298.543 L 364.075,302.01 L 359.245,304.374 L 353.808,305.426 L 348.247,305.073 L 343.056,303.345 L 338.696,300.397 L 335.554,296.49 L 333.91,291.971 L 333.91,287.242 L 335.554,282.724 L 338.696,278.817 L 343.056,275.868 L 348.247,274.141 L 353.808,273.787 L 359.245,274.84 L 364.075,277.204 L 367.868,280.67 L 370.288,284.931 L 371.119,289.607 z" /><path
         id="path309"
         style="fill:#ccccff;fill-opacity:1;fill-rule:evenodd;stroke:none"
         d="M 370.348,277.931 L 369.517,282.607 L 367.097,286.867 L 363.304,290.333 L 358.474,292.698 L 353.037,293.75 L 347.476,293.397 L 342.285,291.669 L 337.925,288.721 L 334.783,284.814 L 333.139,280.295 L 333.139,275.566 L 334.783,271.048 L 337.925,267.14 L 342.285,264.192 L 347.476,262.465 L 353.037,262.111 L 358.474,263.163 L 363.304,265.528 L 367.097,268.994 L 369.517,273.255" /><path
         id="path311"
         style="fill:none;stroke:#ccccff;stroke-width:1;stroke-linecap:butt;stroke-linejoin:miter;stroke-miterlimit:10;stroke-dasharray:none;stroke-opacity:1"
         d="M 370.348,277.931 L 369.517,282.607 L 367.097,286.867 L 363.304,290.333 L 358.474,292.698 L 353.037,293.75 L 347.476,293.397 L 342.285,291.669 L 337.925,288.721 L 334.783,284.814 L 333.139,280.295 L 333.139,275.566 L 334.783,271.048 L 337.925,267.14 L 342.285,264.192 L 347.476,262.465 L 353.037,262.111 L 358.474,263.163 L 363.304,265.528 L 367.097,268.994 L 369.517,273.255 L 370.348,277.931 z" /><path
         id="path313"
         style="fill:#ccccff;fill-opacity:1;fill-rule:evenodd;stroke:none"
         d="M 366.48,291.334 L 365.648,296.01 L 363.229,300.271 L 359.436,303.737 L 354.606,306.102 L 349.169,307.154 L 343.608,306.8 L 338.417,305.073 L 334.056,302.124 L 330.915,298.217 L 329.271,293.699 L 329.271,288.97 L 330.915,284.451 L 334.056,280.544 L 338.417,277.596 L 343.608,275.868 L 349.169,275.515 L 354.606,276.567 L 359.436,278.932 L 363.229,282.398 L 365.648,286.658" /><path
         id="path315"
         style="fill:none;stroke:#ccccff;stroke-width:1;stroke-linecap:butt;stroke-linejoin:miter;stroke-miterlimit:10;stroke-dasharray:none;stroke-opacity:1"
         d="M 366.48,291.334 L 365.648,296.01 L 363.229,300.271 L 359.436,303.737 L 354.606,306.102 L 349.169,307.154 L 343.608,306.8 L 338.417,305.073 L 334.056,302.124 L 330.915,298.217 L 329.271,293.699 L 329.271,288.97 L 330.915,284.451 L 334.056,280.544 L 338.417,277.596 L 343.608,275.868 L 349.169,275.515 L 354.606,276.567 L 359.436,278.932 L 363.229,282.398 L 365.648,286.658 L 366.48,291.334 z" /><path
         id="path317"
         style="fill:#ccccff;fill-opacity:1;fill-rule:evenodd;stroke:none"
         d="M 374.092,286.226 L 373.261,290.902 L 370.841,295.163 L 367.048,298.629 L 362.218,300.994 L 356.782,302.046 L 351.22,301.692 L 346.029,299.965 L 341.669,297.017 L 338.527,293.109 L 336.884,288.591 L 336.884,283.862 L 338.527,279.343 L 341.669,275.436 L 346.029,272.488 L 351.22,270.76 L 356.782,270.407 L 362.218,271.459 L 367.048,273.824 L 370.841,277.29 L 373.261,281.55" /><path
         id="path319"
         style="fill:none;stroke:#ccccff;stroke-width:1;stroke-linecap:butt;stroke-linejoin:miter;stroke-miterlimit:10;stroke-dasharray:none;stroke-opacity:1"
         d="M 374.092,286.226 L 373.261,290.902 L 370.841,295.163 L 367.048,298.629 L 362.218,300.994 L 356.782,302.046 L 351.22,301.692 L 346.029,299.965 L 341.669,297.017 L 338.527,293.109 L 336.884,288.591 L 336.884,283.862 L 338.527,279.343 L 341.669,275.436 L 346.029,272.488 L 351.22,270.76 L 356.782,270.407 L 362.218,271.459 L 367.048,273.824 L 370.841,277.29 L 373.261,281.55 L 374.092,286.226 z" /><path
         id="path321"
         style="fill:#ccccff;fill-opacity:1;fill-rule:evenodd;stroke:none"
         d="M 181.945,140.207 L 181.114,144.883 L 178.694,149.143 L 174.901,152.61 L 170.071,154.974 L 164.634,156.026 L 159.073,155.673 L 153.882,153.945 L 149.522,150.997 L 146.38,147.09 L 144.736,142.571 L 144.736,137.842 L 146.38,133.324 L 149.522,129.417 L 153.882,126.468 L 159.073,124.741 L 164.634,124.387 L 170.071,125.44 L 174.901,127.804 L 178.694,131.27 L 181.114,135.531" /><path
         id="path323"
         style="fill:none;stroke:#ccccff;stroke-width:1;stroke-linecap:butt;stroke-linejoin:miter;stroke-miterlimit:10;stroke-dasharray:none;stroke-opacity:1"
         d="M 181.945,140.207 L 181.114,144.883 L 178.694,149.143 L 174.901,152.61 L 170.071,154.974 L 164.634,156.026 L 159.073,155.673 L 153.882,153.945 L 149.522,150.997 L 146.38,147.09 L 144.736,142.571 L 144.736,137.842 L 146.38,133.324 L 149.522,129.417 L 153.882,126.468 L 159.073,124.741 L 164.634,124.387 L 170.071,125.44 L 174.901,127.804 L 178.694,131.27 L 181.114,135.531 L 181.945,140.207 z" /><path
         id="path325"
         style="fill:#ccccff;fill-opacity:1;fill-rule:evenodd;stroke:none"
         d="M 176.647,136.291 L 175.815,140.966 L 173.396,145.227 L 169.603,148.693 L 164.773,151.058 L 159.336,152.11 L 153.775,151.757 L 148.583,150.029 L 144.223,147.081 L 141.082,143.174 L 139.438,138.655 L 139.438,133.926 L 141.082,129.407 L 144.223,125.5 L 148.583,122.552 L 153.775,120.824 L 159.336,120.471 L 164.773,121.523 L 169.603,123.888 L 173.396,127.354 L 175.815,131.615" /><path
         id="path327"
         style="fill:none;stroke:#ccccff;stroke-width:1;stroke-linecap:butt;stroke-linejoin:miter;stroke-miterlimit:10;stroke-dasharray:none;stroke-opacity:1"
         d="M 176.647,136.291 L 175.815,140.966 L 173.396,145.227 L 169.603,148.693 L 164.773,151.058 L 159.336,152.11 L 153.775,151.757 L 148.583,150.029 L 144.223,147.081 L 141.082,143.174 L 139.438,138.655 L 139.438,133.926 L 141.082,129.407 L 144.223,125.5 L 148.583,122.552 L 153.775,120.824 L 159.336,120.471 L 164.773,121.523 L 169.603,123.888 L 173.396,127.354 L 175.815,131.615 L 176.647,136.291 z" /><path
         id="path329"
         style="fill:#ccccff;fill-opacity:1;fill-rule:evenodd;stroke:none"
         d="M 180.527,152.697 L 179.696,157.373 L 177.276,161.634 L 173.483,165.1 L 168.653,167.464 L 163.216,168.517 L 157.655,168.163 L 152.464,166.436 L 148.104,163.487 L 144.962,159.58 L 143.318,155.062 L 143.318,150.333 L 144.962,145.814 L 148.104,141.907 L 152.464,138.959 L 157.655,137.231 L 163.216,136.878 L 168.653,137.93 L 173.483,140.294 L 177.276,143.761 L 179.696,148.021" /><path
         id="path331"
         style="fill:none;stroke:#ccccff;stroke-width:1;stroke-linecap:butt;stroke-linejoin:miter;stroke-miterlimit:10;stroke-dasharray:none;stroke-opacity:1"
         d="M 180.527,152.697 L 179.696,157.373 L 177.276,161.634 L 173.483,165.1 L 168.653,167.464 L 163.216,168.517 L 157.655,168.163 L 152.464,166.436 L 148.104,163.487 L 144.962,159.58 L 143.318,155.062 L 143.318,150.333 L 144.962,145.814 L 148.104,141.907 L 152.464,138.959 L 157.655,137.231 L 163.216,136.878 L 168.653,137.93 L 173.483,140.294 L 177.276,143.761 L 179.696,148.021 L 180.527,152.697 z" /><path
         id="path333"
         style="fill:#ccccff;fill-opacity:1;fill-rule:evenodd;stroke:none"
         d="M 183.571,134.53 L 182.74,139.206 L 180.32,143.467 L 176.527,146.933 L 171.697,149.298 L 166.26,150.35 L 160.699,149.997 L 155.508,148.269 L 151.148,145.321 L 148.006,141.414 L 146.363,136.895 L 146.363,132.166 L 148.006,127.647 L 151.148,123.74 L 155.508,120.792 L 160.699,119.064 L 166.26,118.711 L 171.697,119.763 L 176.527,122.128 L 180.32,125.594 L 182.74,129.855" /><path
         id="path335"
         style="fill:none;stroke:#ccccff;stroke-width:1;stroke-linecap:butt;stroke-linejoin:miter;stroke-miterlimit:10;stroke-dasharray:none;stroke-opacity:1"
         d="M 183.571,134.53 L 182.74,139.206 L 180.32,143.467 L 176.527,146.933 L 171.697,149.298 L 166.26,150.35 L 160.699,149.997 L 155.508,148.269 L 151.148,145.321 L 148.006,141.414 L 146.363,136.895 L 146.363,132.166 L 148.006,127.647 L 151.148,123.74 L 155.508,120.792 L 160.699,119.064 L 166.26,118.711 L 171.697,119.763 L 176.527,122.128 L 180.32,125.594 L 182.74,129.855 L 183.571,134.53 z" /><path
         id="path337"
         style="fill:#000000;fill-opacity:1;fill-rule:nonzero;stroke:none"
         d="M 63.6948,261.786 C 63.6948,263.786 66.6948,263.786 66.6948,261.786 C 66.6948,259.786 63.6948,259.786 63.6948,261.786 z M 87.0555,189.445 C 87.0555,191.445 90.0555,191.445 90.0555,189.445 C 90.0555,187.445 87.0555,187.445 87.0555,189.445 z" /><path
         id="path339"
         style="fill:#000000;fill-opacity:1;fill-rule:nonzero;stroke:none"
         d="M 157.201,59.348 C 157.201,61.348 160.201,61.348 160.201,59.348 C 160.201,57.348 157.201,57.348 157.201,59.348 z" /><path
         id="path341"
         style="fill:#000000;fill-opacity:1;fill-rule:nonzero;stroke:none"
         d="M 156.438,136.291 C 156.438,138.291 159.438,138.291 159.438,136.291 C 159.438,134.291 156.438,134.291 156.438,136.291 z" /><path
         id="path343"
         style="fill:#000000;fill-opacity:1;fill-rule:nonzero;stroke:none"
         d="M 145.234,137.023 C 145.234,139.023 148.234,139.023 148.234,137.023 C 148.234,135.023 145.234,135.023 145.234,137.023 z" /><path
         id="path345"
         style="fill:#000000;fill-opacity:1;fill-rule:nonzero;stroke:none"
         d="M 160.318,152.697 C 160.318,154.697 163.318,154.697 163.318,152.697 C 163.318,150.697 160.318,150.697 160.318,152.697 z M 161.736,140.207 C 161.736,142.207 164.736,142.207 164.736,140.207 C 164.736,138.207 161.736,138.207 161.736,140.207 z" /><path
         id="path347"
         style="fill:#000000;fill-opacity:1;fill-rule:nonzero;stroke:none"
         d="M 217.945,116.433 C 217.945,118.433 220.945,118.433 220.945,116.433 C 220.945,114.433 217.945,114.433 217.945,116.433 z" /><path
         id="path349"
         style="fill:#000000;fill-opacity:1;fill-rule:nonzero;stroke:none"
         d="M 283.755,288.361 C 283.755,290.361 286.755,290.361 286.755,288.361 C 286.755,286.361 283.755,286.361 283.755,288.361 z M 332.874,426.046 C 332.874,428.046 335.874,428.046 335.874,426.046 C 335.874,424.046 332.874,424.046 332.874,426.046 z M 346.271,291.334 C 346.271,293.334 349.271,293.334 349.271,291.334 C 349.271,289.334 346.271,289.334 346.271,291.334 z M 350.139,277.931 C 350.139,279.931 353.139,279.931 353.139,277.931 C 353.139,275.931 350.139,275.931 350.139,277.931 z M 350.91,289.607 C 350.91,291.607 353.91,291.607 353.91,289.607 C 353.91,287.607 350.91,287.607 350.91,289.607 z M 353.883,286.226 C 353.883,288.226 356.883,288.226 356.883,286.226 C 356.883,284.226 353.883,284.226 353.883,286.226 z M 369.941,336.964 C 369.941,338.964 372.941,338.964 372.941,336.964 C 372.941,334.964 369.941,334.964 369.941,336.964 z M 376.236,341.895 C 376.236,343.895 379.236,343.895 379.236,341.895 C 379.236,339.895 376.236,339.895 376.236,341.895 z M 378.137,347.983 C 378.137,349.983 381.137,349.983 381.137,347.983 C 381.137,345.983 378.137,345.983 378.137,347.983 z M 372.819,342.22 C 372.819,344.22 375.819,344.22 375.819,342.22 C 375.819,340.22 372.819,340.22 372.819,342.22 z M 377.733,344.308 C 377.733,346.308 380.733,346.308 380.733,344.308 C 380.733,342.308 377.733,342.308 377.733,344.308 z M 384.845,342.183 C 384.845,344.183 387.845,344.183 387.845,342.183 C 387.845,340.183 384.845,340.183 384.845,342.183 z M 377.055,341.829 C 377.055,343.829 380.055,343.829 380.055,341.829 C 380.055,339.829 377.055,339.829 377.055,341.829 z M 379.007,343.014 C 379.007,345.014 382.007,345.014 382.007,343.014 C 382.007,341.014 379.007,341.014 379.007,343.014 z M 381.118,342.585 C 381.118,344.585 384.118,344.585 384.118,342.585 C 384.118,340.585 381.118,340.585 381.118,342.585 z M 382.177,339.781 C 382.177,341.781 385.177,341.781 385.177,339.781 C 385.177,337.781 382.177,337.781 382.177,339.781 z M 382.625,320.467 C 382.625,322.467 385.625,322.467 385.625,320.467 C 385.625,318.467 382.625,318.467 382.625,320.467 z M 415.308,339.894 C 415.308,341.894 418.308,341.894 418.308,339.894 C 418.308,337.894 415.308,337.894 415.308,339.894 z M 415.873,346.7 C 415.873,348.7 418.873,348.7 418.873,346.7 C 418.873,344.7 415.873,344.7 415.873,346.7 z M 417.645,359.894 C 417.645,361.894 420.645,361.894 420.645,359.894 C 420.645,357.894 417.645,357.894 417.645,359.894 z M 432.007,310.464 C 432.007,312.464 435.007,312.464 435.007,310.464 C 435.007,308.464 432.007,308.464 432.007,310.464 z M 424.785,243.811 C 424.785,245.811 427.785,245.811 427.785,243.811 C 427.785,241.811 424.785,241.811 424.785,243.811 z M 453.121,360.743 C 453.121,362.743 456.121,362.743 456.121,360.743 C 456.121,358.743 453.121,358.743 453.121,360.743 z M 445.038,411.855 C 445.038,413.855 448.038,413.855 448.038,411.855 C 448.038,409.855 445.038,409.855 445.038,411.855 z M 470.469,414.749 C 470.469,416.749 473.469,416.749 473.469,414.749 C 473.469,412.749 470.469,412.749 470.469,414.749 z M 466.414,394.509 C 466.414,396.509 469.414,396.509 469.414,394.509 C 469.414,392.509 466.414,392.509 466.414,394.509 z M 472.304,399.571 C 472.304,401.571 475.304,401.571 475.304,399.571 C 475.304,397.571 472.304,397.571 472.304,399.571 z M 477.596,402.508 C 477.596,404.508 480.596,404.508 480.596,402.508 C 480.596,400.508 477.596,400.508 477.596,402.508 z M 475.263,387.135 C 475.263,389.135 478.263,389.135 478.263,387.135 C 478.263,385.135 475.263,385.135 475.263,387.135 z M 483.616,395.082 C 483.616,397.082 486.616,397.082 486.616,395.082 C 486.616,393.082 483.616,393.082 483.616,395.082 z M 522.757,429.227 C 522.757,431.227 525.757,431.227 525.757,429.227 C 525.757,427.227 522.757,427.227 522.757,429.227 z M 534.915,385.092 C 534.915,387.092 537.915,387.092 537.915,385.092 C 537.915,383.092 534.915,383.092 534.915,385.092 z" /><path
         id="path351"
         style="fill:#000000;fill-opacity:1;fill-rule:nonzero;stroke:none"
         d="M 163.362,134.53 C 163.362,136.53 166.362,136.53 166.362,134.53 C 166.362,132.53 163.362,132.53 163.362,134.53 z" /><path
         id="path353"
         style="fill:#000000;fill-opacity:1;fill-rule:nonzero;stroke:none"
         d="M 386.622,373.424 C 386.622,375.424 389.622,375.424 389.622,373.424 C 389.622,371.424 386.622,371.424 386.622,373.424 z M 440.818,383.064 C 440.818,385.064 443.818,385.064 443.818,383.064 C 443.818,381.064 440.818,381.064 440.818,383.064 z M 476.342,294.616 C 476.342,296.616 479.342,296.616 479.342,294.616 C 479.342,292.616 476.342,292.616 476.342,294.616 z M 470.952,405.657 C 470.952,407.657 473.952,407.657 473.952,405.657 C 473.952,403.657 470.952,403.657 470.952,405.657 z M 489.291,404.917 C 489.291,406.917 492.291,406.917 492.291,404.917 C 492.291,402.917 489.291,402.917 489.291,404.917 z" /><path
         id="path355"
         style="fill:#000000;fill-opacity:1;fill-rule:nonzero;stroke:none"
         d="M 379.465,341.845 C 379.465,343.845 382.465,343.845 382.465,341.845 C 382.465,339.845 379.465,339.845 379.465,341.845 z M 383.186,341.92 C 383.186,343.92 386.186,343.92 386.186,341.92 C 386.186,339.92 383.186,339.92 383.186,341.92 z M 387.21,335.756 C 387.21,337.756 390.21,337.756 390.21,335.756 C 390.21,333.756 387.21,333.756 387.21,335.756 z M 381.382,335.891 C 381.382,337.891 384.382,337.891 384.382,335.891 C 384.382,333.891 381.382,333.891 381.382,335.891 z M 455.123,400.895 C 455.123,402.895 458.123,402.895 458.123,400.895 C 458.123,398.895 455.123,398.895 455.123,400.895 z" /><path
         id="path357"
         style="fill:#000000;fill-opacity:1;fill-rule:nonzero;stroke:none"
         d="M 96.5282,229.259 C 96.5282,231.259 99.5282,231.259 99.5282,229.259 C 99.5282,227.259 96.5282,227.259 96.5282,229.259 z" /><path
         id="path359"
         style="fill:#000000;fill-opacity:1;fill-rule:nonzero;stroke:none"
         d="M 114.9,301.144 C 114.9,303.144 117.9,303.144 117.9,301.144 C 117.9,299.144 114.9,299.144 114.9,301.144 z" /><path
         id="path361"
         style="fill:#000000;fill-opacity:1;fill-rule:nonzero;stroke:none"
         d="M 106.491,356.791 C 106.491,358.791 109.491,358.791 109.491,356.791 C 109.491,354.791 106.491,354.791 106.491,356.791 z M 67.7682,324.811 C 67.7682,326.811 70.7682,326.811 70.7682,324.811 C 70.7682,322.811 67.7682,322.811 67.7682,324.811 z M 57.6596,402.781 C 57.6596,404.781 60.6596,404.781 60.6596,402.781 C 60.6596,400.781 57.6596,400.781 57.6596,402.781 z M 121.053,352.11 C 121.053,354.11 124.053,354.11 124.053,352.11 C 124.053,350.11 121.053,350.11 121.053,352.11 z" /><path
         id="path363"
         style="fill:#000000;fill-opacity:1;fill-rule:nonzero;stroke:none"
         d="M 71.9327,142.009 C 71.9327,144.009 74.9327,144.009 74.9327,142.009 C 74.9327,140.009 71.9327,140.009 71.9327,142.009 z M 188.091,66.5001 C 188.091,68.5001 191.091,68.5001 191.091,66.5001 C 191.091,64.5001 188.091,64.5001 188.091,66.5001 z" /><path
         id="path365"
         style="fill:#000000;fill-opacity:1;fill-rule:nonzero;stroke:none"
         d="M 147.384,251.916 C 147.384,253.916 150.384,253.916 150.384,251.916 C 150.384,249.916 147.384,249.916 147.384,251.916 z" /><path
         id="path367"
         style="fill:#000000;fill-opacity:1;fill-rule:nonzero;stroke:none"
         d="M 340.307,63.4048 C 340.307,65.4048 343.307,65.4048 343.307,63.4048 C 343.307,61.4048 340.307,61.4048 340.307,63.4048 z" /><path
         id="path369"
         style="fill:#000000;fill-opacity:1;fill-rule:nonzero;stroke:none"
         d="M 443.966,82.9741 C 443.966,84.9741 446.966,84.9741 446.966,82.9741 C 446.966,80.9741 443.966,80.9741 443.966,82.9741 z" /><path
         id="path371"
         style="fill:#000000;fill-opacity:1;fill-rule:nonzero;stroke:none"
         d="M 410.62,398.676 C 410.62,400.676 413.62,400.676 413.62,398.676 C 413.62,396.676 410.62,396.676 410.62,398.676 z M 428.551,289.783 C 428.551,291.783 431.551,291.783 431.551,289.783 C 431.551,287.783 428.551,287.783 428.551,289.783 z M 437.499,250.078 C 437.499,252.078 440.499,252.078 440.499,250.078 C 440.499,248.078 437.499,248.078 437.499,250.078 z" /><path
         id="path373"
         style="fill:#000000;fill-opacity:1;fill-rule:nonzero;stroke:none"
         d="M 83.0608,139.727 C 83.0608,141.727 86.0608,141.727 86.0608,139.727 C 86.0608,137.727 83.0608,137.727 83.0608,139.727 z M 489.255,396.161 C 489.255,398.161 492.255,398.161 492.255,396.161 C 492.255,394.161 489.255,394.161 489.255,396.161 z" /><path
         id="path375"
         style="fill:#000000;fill-opacity:1;fill-rule:nonzero;stroke:none"
         d="M 65.9979,336.293 C 65.9979,338.293 68.9979,338.293 68.9979,336.293 C 68.9979,334.293 65.9979,334.293 65.9979,336.293 z" /><path
         id="path377"
         style="fill:#000000;fill-opacity:1;fill-rule:nonzero;stroke:none"
         d="M 162.054,226.907 C 162.054,228.907 165.054,228.907 165.054,226.907 C 165.054,224.907 162.054,224.907 162.054,226.907 z M 133.038,249.678 C 133.038,251.678 136.038,251.678 136.038,249.678 C 136.038,247.678 133.038,247.678 133.038,249.678 z" /><path
         id="path379"
         style="fill:#000000;fill-opacity:1;fill-rule:nonzero;stroke:none"
         d="M 477.432,292.637 C 477.432,294.637 480.432,294.637 480.432,292.637 C 480.432,290.637 477.432,290.637 477.432,292.637 z M 469.302,404.962 C 469.302,406.962 472.302,406.962 472.302,404.962 C 472.302,402.962 469.302,402.962 469.302,404.962 z M 411.991,388.732 C 411.991,390.732 414.991,390.732 414.991,388.732 C 414.991,386.732 411.991,386.732 411.991,388.732 z" /><path
         id="path381"
         style="fill:#000000;fill-opacity:1;fill-rule:nonzero;stroke:none"
         d="M 515.618,384.784 C 515.618,386.784 518.618,386.784 518.618,384.784 C 518.618,382.784 515.618,382.784 515.618,384.784 z" /><path
         id="path383"
         style="fill:none;stroke:#ff0000;stroke-width:1;stroke-linecap:butt;stroke-linejoin:miter;stroke-miterlimit:10;stroke-dasharray:none;stroke-opacity:1"
         d="M 361.483,285.313 L 366.983,290.813 M 361.483,290.813 L 366.983,285.313 M 167.654,130.933 L 173.154,136.433 M 167.654,136.433 L 173.154,130.933 M 157.805,133.956 L 163.305,139.456 M 157.805,139.456 L 163.305,133.956 M 351.43,272.939 L 356.93,278.439 M 351.43,278.439 L 356.93,272.939 M 154.897,134.51 L 160.397,140.01 M 154.897,140.01 L 160.397,134.51 M 163.651,145.29 L 169.151,150.79 M 163.651,150.79 L 169.151,145.29 M 340.029,290.89 L 345.529,296.39 M 340.029,296.39 L 345.529,290.89" /><path
         id="path385"
         style="fill:none;stroke:#ff0000;stroke-width:1;stroke-linecap:butt;stroke-linejoin:miter;stroke-miterlimit:10;stroke-dasharray:none;stroke-opacity:1"
         d="M 162.112,134.53 L 167.612,134.53 M 164.862,131.78 L 164.862,137.28 M 352.633,286.226 L 358.133,286.226 M 355.383,283.476 L 355.383,288.976 M 349.66,289.607 L 355.16,289.607 M 352.41,286.857 L 352.41,292.357 M 160.486,140.207 L 165.986,140.207 M 163.236,137.457 L 163.236,142.957 M 348.889,277.931 L 354.389,277.931 M 351.639,275.181 L 351.639,280.681 M 155.188,136.291 L 160.688,136.291 M 157.938,133.541 L 157.938,139.041 M 159.068,152.697 L 164.568,152.697 M 161.818,149.947 L 161.818,155.447 M 345.021,291.334 L 350.521,291.334 M 347.771,288.584 L 347.771,294.084 M 85.8055,189.445 L 91.3055,189.445 M 88.5555,186.695 L 88.5555,192.195" /><path
         id="path387"
         style="fill:none;stroke:#0000ff;stroke-width:1;stroke-linecap:butt;stroke-linejoin:miter;stroke-miterlimit:10;stroke-dasharray:none;stroke-opacity:1"
         d="M 351.846,284.567 L 351.846,281.817 L 354.596,281.817 L 354.596,284.567 L 357.346,284.567 L 357.346,287.317 L 354.596,287.317 L 354.596,290.067 L 351.846,290.067 L 351.846,287.317 L 349.096,287.317 L 349.096,284.567 L 351.846,284.567 z M 161.98,136.419 L 161.98,133.669 L 164.73,133.669 L 164.73,136.419 L 167.48,136.419 L 167.48,139.169 L 164.73,139.169 L 164.73,141.919 L 161.98,141.919 L 161.98,139.169 L 159.23,139.169 L 159.23,136.419 L 161.98,136.419 z" /><g
         id="g389"><g
           clip-path="url(#clipPath393)"
           id="g391"><text
             id="text397"
             transform="matrix(1,0,0,-1,390.639,301.806)"><tspan
               id="tspan399"
               sodipodi:role="line"
               y="0"
               x="0 5.3666635 7.8084517 12.937963 15.379751 20.263327 25.146902 27.588692 32.472267 34.914055 41.747547 46.631123 52.489658 54.931446"
               style="font-size:8.78341007px;font-variant:normal;font-weight:bold;writing-mode:lr-tb;fill:#0000ff;fill-opacity:1;fill-rule:nonzero;stroke:none;font-family:Helvetica;-inkscape-font-specification:Helvetica-Bold">p = 91.3 GeV/c</tspan></text>
</g></g><g
         id="g401"><g
           clip-path="url(#clipPath405)"
           id="g403"><text
             id="text409"
             transform="matrix(1,0,0,-1,390.639,285.942)"><tspan
               id="tspan411"
               sodipodi:role="line"
               y="0"
               x="0 7.8084517 10.250239 15.379751 17.821539 22.705114 25.146902 30.030479 34.914055 37.355843 44.189335 49.07291 54.931446 57.373234 62.256809 64.698601"
               style="font-size:8.78341007px;font-variant:normal;font-weight:bold;writing-mode:lr-tb;fill:#0000ff;fill-opacity:1;fill-rule:nonzero;stroke:none;font-family:Helvetica;-inkscape-font-specification:Helvetica-Bold">m = 2.66 GeV/c/c</tspan></text>
</g></g><g
         id="g413"><g
           clip-path="url(#clipPath417)"
           id="g415"><text
             id="text421"
             transform="matrix(1,0,0,-1,390.639,270.078)"><tspan
               id="tspan423"
               sodipodi:role="line"
               y="0"
               x="0 4.8835759 7.3253641 10.250239 13.666986 18.550562 23.434137 28.317715 33.20129 36.618038 39.059826 41.501614 46.385189 48.826977 53.710552 56.635429 61.519005 66.885666 72.252327 78.593956 81.035744 86.402405 91.769066"
               style="font-size:8.78341007px;font-variant:normal;font-weight:bold;writing-mode:lr-tb;fill:#0000ff;fill-opacity:1;fill-rule:nonzero;stroke:none;font-family:Helvetica;-inkscape-font-specification:Helvetica-Bold">4 tracker, 2 standAlone</tspan></text>
</g></g><g
         id="g425"><g
           clip-path="url(#clipPath429)"
           id="g427"><text
             id="text433"
             transform="matrix(1,0,0,-1,390.639,254.214)"><tspan
               id="tspan435"
               sodipodi:role="line"
               y="0"
               x="0 4.8835759 9.7671518 13.183898 16.108774 20.99235 25.875925 28.317715 33.447224 35.889011 38.813889 43.697464 46.139252 51.022827 55.906406 58.348194 63.23177 65.673553 70.557129 75.440712 80.324287 82.766075 87.649651 92.533226 95.458099 97.899887 105.70834"
               style="font-size:8.78341007px;font-variant:normal;font-weight:bold;writing-mode:lr-tb;fill:#0000ff;fill-opacity:1;fill-rule:nonzero;stroke:none;font-family:Helvetica;-inkscape-font-specification:Helvetica-Bold">vertex = (0.46,0.045,31) mm</tspan></text>
</g></g><g
         id="g437"><g
           clip-path="url(#clipPath441)"
           id="g439"><text
             id="text445"
             transform="matrix(1,0,0,-1,390.639,238.351)"><tspan
               id="tspan447"
               sodipodi:role="line"
               y="0"
               x="0 5.3666635 8.7834101 14.150073 19.516737 21.958525 27.088036 29.529825 34.413399 39.296978"
               style="font-size:8.78341007px;font-variant:normal;font-weight:bold;writing-mode:lr-tb;fill:#0000ff;fill-opacity:1;fill-rule:nonzero;stroke:none;font-family:Helvetica;-inkscape-font-specification:Helvetica-Bold">prob = 81%</tspan></text>
</g></g><g
         id="g449"><g
           clip-path="url(#clipPath453)"
           id="g451"><text
             id="text457"
             transform="matrix(1,0,0,-1,200.772,153.658)"><tspan
               id="tspan459"
               sodipodi:role="line"
               y="0"
               x="0 5.3666635 7.8084517 12.937963 15.379751 20.263327 25.146902 30.030479 32.472267 39.305759 44.189335 50.047871 52.489658"
               style="font-size:8.78341007px;font-variant:normal;font-weight:bold;writing-mode:lr-tb;fill:#0000ff;fill-opacity:1;fill-rule:nonzero;stroke:none;font-family:Helvetica;-inkscape-font-specification:Helvetica-Bold">p = 146 GeV/c</tspan></text>
</g></g><g
         id="g461"><g
           clip-path="url(#clipPath465)"
           id="g463"><text
             id="text469"
             transform="matrix(1,0,0,-1,200.772,137.794)"><tspan
               id="tspan471"
               sodipodi:role="line"
               y="0"
               x="0 7.8084517 10.250239 15.379751 17.821539 22.705114 25.146902 31.980396 36.863972 42.722507 45.164295 50.047871 52.489658"
               style="font-size:8.78341007px;font-variant:normal;font-weight:bold;writing-mode:lr-tb;fill:#0000ff;fill-opacity:1;fill-rule:nonzero;stroke:none;font-family:Helvetica;-inkscape-font-specification:Helvetica-Bold">m = 3 GeV/c/c</tspan></text>
</g></g><g
         id="g473"><g
           clip-path="url(#clipPath477)"
           id="g475"><text
             id="text481"
             transform="matrix(1,0,0,-1,200.772,121.931)"><tspan
               id="tspan483"
               sodipodi:role="line"
               y="0"
               x="0 4.8835759 7.3253641 10.250239 13.666986 18.550562 23.434137 28.317715 33.20129 36.618038 39.059826 41.501614 46.385189 48.826977 53.710552 56.635429 61.519005 66.885666 72.252327 78.593956 81.035744 86.402405 91.769066"
               style="font-size:8.78341007px;font-variant:normal;font-weight:bold;writing-mode:lr-tb;fill:#0000ff;fill-opacity:1;fill-rule:nonzero;stroke:none;font-family:Helvetica;-inkscape-font-specification:Helvetica-Bold">4 tracker, 4 standAlone</tspan></text>
</g></g><g
         id="g485"><g
           clip-path="url(#clipPath489)"
           id="g487"><text
             id="text493"
             transform="matrix(1,0,0,-1,200.772,106.067)"><tspan
               id="tspan495"
               sodipodi:role="line"
               y="0"
               x="0 4.8835759 9.7671518 13.183898 16.108774 20.99235 25.875925 28.317715 33.447224 35.889011 38.813889 43.697464 46.139252 51.022827 53.464615 56.389492 61.273067 63.714855 68.598434 73.48201 78.365585 80.807373 85.690948 90.574524 93.499397 95.941185 103.74964"
               style="font-size:8.78341007px;font-variant:normal;font-weight:bold;writing-mode:lr-tb;fill:#0000ff;fill-opacity:1;fill-rule:nonzero;stroke:none;font-family:Helvetica;-inkscape-font-specification:Helvetica-Bold">vertex = (0.4,-0.099,31) mm</tspan></text>
</g></g><g
         id="g497"><g
           clip-path="url(#clipPath501)"
           id="g499"><text
             id="text505"
             transform="matrix(1,0,0,-1,200.772,90.203)"><tspan
               id="tspan507"
               sodipodi:role="line"
               y="0"
               x="0 5.3666635 8.7834101 14.150073 19.516737 21.958525 27.088036 29.529825 34.413399"
               style="font-size:8.78341007px;font-variant:normal;font-weight:bold;writing-mode:lr-tb;fill:#0000ff;fill-opacity:1;fill-rule:nonzero;stroke:none;font-family:Helvetica;-inkscape-font-specification:Helvetica-Bold">prob = 9%</tspan></text>
</g></g><path
         id="path509"
         style="fill:#ffffff;fill-opacity:1;fill-rule:evenodd;stroke:none"
         d="M 408.828,335.367 L 536.587,335.367 L 536.587,430.3875 L 408.828,430.3875 L 408.828,335.367 z" /><path
         id="path511"
         style="fill:none;stroke:#000000;stroke-width:1;stroke-linecap:butt;stroke-linejoin:miter;stroke-miterlimit:10;stroke-dasharray:none;stroke-opacity:1"
         d="M 408.828,335.367 L 536.586,335.367" /><path
         id="path513"
         style="fill:none;stroke:#000000;stroke-width:1;stroke-linecap:butt;stroke-linejoin:miter;stroke-miterlimit:10;stroke-dasharray:none;stroke-opacity:1"
         d="M 536.586,335.367 L 536.586,430.387" /><path
         id="path515"
         style="fill:none;stroke:#000000;stroke-width:1;stroke-linecap:butt;stroke-linejoin:miter;stroke-miterlimit:10;stroke-dasharray:none;stroke-opacity:1"
         d="M 536.586,430.387 L 408.828,430.387" /><path
         id="path517"
         style="fill:none;stroke:#000000;stroke-width:1;stroke-linecap:butt;stroke-linejoin:miter;stroke-miterlimit:10;stroke-dasharray:none;stroke-opacity:1"
         d="M 408.828,430.387 L 408.828,335.367" /><g
         id="g519"><g
           clip-path="url(#clipPath523)"
           id="g521"><text
             id="text527"
             transform="matrix(1,0,0,-1,440.767,417.611)"><tspan
               id="tspan529"
               sodipodi:role="line"
               y="0"
               x="0 3.4566731 7.4946489 13.266151 19.037653 24.809156"
               style="font-size:10.3803997px;font-variant:normal;font-weight:bold;writing-mode:lr-tb;fill:#000000;fill-opacity:1;fill-rule:nonzero;stroke:none;font-family:Helvetica;-inkscape-font-specification:Helvetica-Bold">tracks</tspan></text>
</g></g><path
         id="path531"
         style="fill:#000000;fill-opacity:1;fill-rule:nonzero;stroke:none"
         d="M 423.298,420.885 C 423.298,422.885 426.298,422.885 426.298,420.885 C 426.298,418.885 423.298,418.885 423.298,420.885 z" /><g
         id="g533"><g
           clip-path="url(#clipPath537)"
           id="g535"><text
             id="text541"
             transform="matrix(1,0,0,-1,440.767,398.447)"><tspan
               id="tspan543"
               sodipodi:role="line"
               y="0"
               x="0 3.4566731 7.4946489 13.266151 19.037653 24.809156 30.580658 34.618633 43.265507 49.607933 55.950356 62.292782"
               style="font-size:10.3803997px;font-variant:normal;font-weight:bold;writing-mode:lr-tb;fill:#000000;fill-opacity:1;fill-rule:nonzero;stroke:none;font-family:Helvetica;-inkscape-font-specification:Helvetica-Bold">trackerMuons</tspan></text>
</g></g><path
         id="path545"
         style="fill:none;stroke:#ff0000;stroke-width:1;stroke-linecap:butt;stroke-linejoin:miter;stroke-miterlimit:10;stroke-dasharray:none;stroke-opacity:1"
         d="M 422.048,401.881 L 427.548,401.881 M 424.798,399.131 L 424.798,404.631" /><g
         id="g547"><g
           clip-path="url(#clipPath551)"
           id="g549"><text
             id="text555"
             transform="matrix(1,0,0,-1,440.767,379.284)"><tspan
               id="tspan557"
               sodipodi:role="line"
               y="0"
               x="0 5.7715025 9.2281752 14.999678 21.342102 27.684526 35.179176 38.064926 44.407352 50.749775 56.521278 65.168152 71.510574 77.852997 84.195427"
               style="font-size:10.3803997px;font-variant:normal;font-weight:bold;writing-mode:lr-tb;fill:#000000;fill-opacity:1;fill-rule:nonzero;stroke:none;font-family:Helvetica;-inkscape-font-specification:Helvetica-Bold">standAloneMuons</tspan></text>
</g></g><path
         id="path559"
         style="fill:none;stroke:#ff0000;stroke-width:1;stroke-linecap:butt;stroke-linejoin:miter;stroke-miterlimit:10;stroke-dasharray:none;stroke-opacity:1"
         d="M 422.048,380.127 L 427.548,385.627 M 422.048,385.627 L 427.548,380.127" /><g
         id="g561"><g
           clip-path="url(#clipPath565)"
           id="g563"><text
             id="text569"
             transform="matrix(1,0,0,-1,440.767,360.918)"><tspan
               id="tspan571"
               sodipodi:role="line"
               y="0"
               x="0 9.2281752 15.5706 21.913025 28.255449 31.141199 34.026951 39.798454 43.255127"
               style="font-size:10.3803997px;font-variant:normal;font-weight:bold;writing-mode:lr-tb;fill:#000000;fill-opacity:1;fill-rule:nonzero;stroke:none;font-family:Helvetica;-inkscape-font-specification:Helvetica-Bold">muon jets</tspan></text>
</g></g><path
         sodipodi:nodetypes="ccccc"
         id="path573"
         style="fill:#ccccff;fill-opacity:1;fill-rule:evenodd;stroke:#000000;stroke-width:1;stroke-miterlimit:4;stroke-dasharray:3, 3;stroke-dashoffset:0;stroke-opacity:1"
         d="M 413.619,370.524 L 413.619,357.221 L 435.977,357.221 L 435.977,370.524 L 413.619,370.524 z" /><g
         id="g583"><g
           clip-path="url(#clipPath587)"
           id="g585"><text
             id="text591"
             transform="matrix(1,0,0,-1,440.767,341.754)"><tspan
               id="tspan593"
               sodipodi:role="line"
               y="0"
               x="0 9.2281752 15.5706 21.913025 28.255449 31.141199 34.026951 39.798454 43.255127 46.140877 52.483303 55.369053 59.407028 65.178528 70.950035 74.406708 77.292458 83.63488"
               style="font-size:10.3803997px;font-variant:normal;font-weight:bold;writing-mode:lr-tb;fill:#000000;fill-opacity:1;fill-rule:nonzero;stroke:none;font-family:Helvetica;-inkscape-font-specification:Helvetica-Bold">muon jet direction</tspan></text>
</g></g><path
         id="path595"
         style="fill:none;stroke:#0000ff;stroke-width:1;stroke-linecap:butt;stroke-linejoin:miter;stroke-miterlimit:10;stroke-dasharray:none;stroke-opacity:1"
         d="M 423.423,343.494 L 423.423,340.744 L 426.173,340.744 L 426.173,343.494 L 428.923,343.494 L 428.923,346.244 L 426.173,346.244 L 426.173,348.994 L 423.423,348.994 L 423.423,346.244 L 420.673,346.244 L 420.673,343.494 L 423.423,343.494 z" /><path
         id="path3746"
         d="M 139.45,133.925 C 140.49306,130.01757 142.67381,126.30664 146.19332,124.16398 C 148.48146,122.30416 151.38671,121.5439 154.18202,120.79987 C 157.33299,120.76687 160.06759,118.6726 163.27072,118.88915 C 165.64629,118.52447 167.95647,118.96709 170.27589,119.48154 C 173.86804,120.34314 177.14344,122.32306 179.6786,125.00433 C 182.16021,127.82656 183.70211,131.61012 183.40537,135.38801 C 182.73841,139.06801 181.64763,142.65167 180.41976,146.14726 C 178.66383,149.36035 181.6658,153.43454 179.73367,157.01473 C 178.29838,160.75546 175.51653,164.0696 171.89932,165.86328 C 169.17,167.57804 165.9628,168.11936 162.818,168.49945 C 160.17362,168.32396 157.46708,168.39212 154.99624,167.28559 C 151.59137,166.23826 148.42837,164.13949 146.30179,161.26607 C 143.80218,158.37669 142.96902,154.39049 143.35458,150.64896 C 143.91207,148.57155 145.11975,146.69383 142.72822,145.23756 C 140.07158,142.37269 139.11488,138.31878 139.45,134.48164 L 139.45,133.925 L 139.45,133.925 z"
         style="fill:none;stroke:#000000;stroke-width:1;stroke-linecap:butt;stroke-linejoin:miter;stroke-miterlimit:10;stroke-dasharray:3, 3;stroke-dashoffset:0;stroke-opacity:1" /><path
         id="path3776"
         d="M 329.27499,288.97501 C 329.70408,285.79705 332.3996,283.24616 333.30071,280.70423 C 332.69213,277.0413 333.38865,273.13702 335.52825,270.07746 C 336.9729,268.01544 338.77272,266.30016 340.98914,265.08972 C 342.89231,263.61716 345.3729,263.26388 347.59545,262.50267 C 350.50607,262.22464 353.4919,261.84431 356.33456,262.7736 C 358.95815,263.0322 361.20353,264.54061 363.48347,265.71738 C 366.4582,268.09272 369.25816,271.19366 369.84433,275.07581 C 370.84086,278.48275 373.99858,281.23119 373.9008,285.12939 C 374.31056,288.77617 372.79795,292.35716 370.70284,295.27979 C 368.51788,297.06605 367.22981,299.60788 364.89284,301.25749 C 363.16886,302.7606 360.90617,303.5135 358.86068,304.44053 C 356.12829,305.17081 353.64518,306.64161 350.7486,306.85753 C 348.30309,307.38285 345.7802,306.92298 343.32512,306.69352 C 340.76773,305.85374 338.04461,305.22912 335.95834,303.41065 C 332.81382,301.46662 330.62782,298.20415 329.61166,294.68448 C 328.95703,292.86305 329.40484,290.87042 329.27499,288.97501 z"
         style="fill:none;stroke:#000000;stroke-width:1;stroke-linecap:butt;stroke-linejoin:miter;stroke-miterlimit:10;stroke-dasharray:3, 3;stroke-dashoffset:0;stroke-opacity:1" /></g></g></svg>